# xmcd CD database file
#
# Track frame offsets:
#	150
#	20068
#	24467
#	47924
#	71478
#	92743
#	117202
#	140893
#	174271
#	192678
#
# Disc length: 2655 seconds
#
# Revision: 0
# Processed by: cddbd v1.5.2PL0 Copyright (c) Steve Scherf et al.
# Submitted via: CDex 1.51
#
DISCID=900a5d0a
DTITLE=Elliot Galvin Trio - The Influencing Machine
DYEAR=2016
DGENRE=Jazz
TTITLE0=New Model Army
TTITLE1=La Machine
TTITLE2=Red and Yellow
TTITLE3=Society
TTITLE4=Planet Ping Pong
TTITLE5=Monster Mind
TTITLE6=Bikini Island
TTITLE7=Bees, Dogs and Flies
TTITLE8=Boys Club
TTITLE9=Fountain Head
EXTD=YEAR: 2016
EXTT0=
EXTT1=
EXTT2=
EXTT3=
EXTT4=
EXTT5=
EXTT6=
EXTT7=
EXTT8=
EXTT9=
PLAYORDER=
